<svg width="90" height="28" viewBox="0 0 90 28" fill="none" xmlns="http://www.w3.org/2000/svg">
<path d="M5.424 8.032H0.192V5.272H13.68V8.032H8.448V22H5.424V8.032ZM15.3675 10.168H18.2475V22H15.3675V10.168ZM15.2955 5.272H18.3195V7.936H15.2955V5.272ZM21.6259 10.168H24.5059V11.344C24.8899 10.864 25.3859 10.512 25.9939 10.288C26.6019 10.048 27.2419 9.928 27.9139 9.928C29.4819 9.928 30.7059 10.504 31.5859 11.656C32.4659 12.792 32.9059 14.272 32.9059 16.096C32.9059 17.36 32.6899 18.456 32.2579 19.384C31.8419 20.312 31.2579 21.024 30.5059 21.52C29.7539 22 28.8899 22.24 27.9139 22.24C27.2419 22.24 26.5939 22.112 25.9699 21.856C25.3619 21.6 24.8739 21.248 24.5059 20.8V26.896H21.6259V10.168ZM27.1939 19.72C28.1379 19.72 28.8419 19.408 29.3059 18.784C29.7859 18.144 30.0259 17.24 30.0259 16.072C30.0259 13.656 29.0899 12.448 27.2179 12.448C26.2099 12.448 25.4579 12.776 24.9619 13.432C24.4819 14.088 24.2419 14.968 24.2419 16.072C24.2419 17.16 24.4819 18.04 24.9619 18.712C25.4579 19.384 26.2019 19.72 27.1939 19.72ZM39.0317 22.24C37.8317 22.24 36.7757 21.928 35.8637 21.304C34.9677 20.664 34.3677 19.872 34.0637 18.928L36.3677 17.896C36.8317 19.192 37.6717 19.84 38.8877 19.84C39.5117 19.84 39.9837 19.696 40.3037 19.408C40.6397 19.12 40.8077 18.8 40.8077 18.448C40.8077 18.08 40.6317 17.808 40.2797 17.632C39.9277 17.456 39.3757 17.264 38.6237 17.056C37.8557 16.864 37.2157 16.664 36.7037 16.456C36.2077 16.232 35.7757 15.896 35.4077 15.448C35.0397 14.984 34.8557 14.376 34.8557 13.624C34.8557 12.424 35.2797 11.512 36.1277 10.888C36.9757 10.248 38.0157 9.928 39.2477 9.928C40.2557 9.928 41.1437 10.152 41.9117 10.6C42.6797 11.048 43.2877 11.68 43.7357 12.496L41.5037 13.72C41.2637 13.272 40.9597 12.912 40.5917 12.64C40.2237 12.352 39.7437 12.208 39.1517 12.208C38.7037 12.208 38.3357 12.304 38.0477 12.496C37.7757 12.688 37.6397 12.928 37.6397 13.216C37.6397 13.536 37.8077 13.784 38.1437 13.96C38.4797 14.136 38.9917 14.32 39.6797 14.512C40.4797 14.752 41.1437 14.992 41.6717 15.232C42.2157 15.472 42.6797 15.84 43.0637 16.336C43.4477 16.832 43.6397 17.48 43.6397 18.28C43.6397 19.16 43.4157 19.896 42.9677 20.488C42.5357 21.08 41.9677 21.52 41.2637 21.808C40.5597 22.096 39.8157 22.24 39.0317 22.24Z" fill="black"/>
<path d="M58.68 10.168H61.464V11.656C62.136 10.504 63.192 9.928 64.632 9.928C65.368 9.928 66.04 10.104 66.648 10.456C67.272 10.808 67.752 11.408 68.088 12.256C68.536 11.424 69.08 10.832 69.72 10.48C70.36 10.112 71.088 9.928 71.904 9.928C73.248 9.928 74.272 10.368 74.976 11.248C75.68 12.112 76.032 13.184 76.032 14.464V22H73.152V15.328C73.152 13.408 72.48 12.448 71.136 12.448C70.384 12.448 69.84 12.688 69.504 13.168C69.168 13.632 68.968 14.184 68.904 14.824C68.84 15.448 68.808 16.336 68.808 17.488V22H65.928V15.328C65.928 13.408 65.264 12.448 63.936 12.448C63.184 12.448 62.64 12.688 62.304 13.168C61.968 13.632 61.76 14.192 61.68 14.848C61.616 15.488 61.584 16.368 61.584 17.488V22H58.704L58.68 10.168ZM83.9181 22.24C82.6221 22.24 81.5341 21.96 80.6541 21.4C79.7901 20.84 79.1501 20.104 78.7341 19.192C78.3181 18.264 78.1101 17.248 78.1101 16.144C78.1101 15.056 78.3101 14.04 78.7101 13.096C79.1261 12.152 79.7501 11.392 80.5821 10.816C81.4301 10.224 82.4781 9.928 83.7261 9.928C84.9101 9.928 85.9101 10.192 86.7261 10.72C87.5421 11.248 88.1501 11.968 88.5501 12.88C88.9661 13.792 89.1741 14.808 89.1741 15.928C89.1741 16.28 89.1501 16.648 89.1021 17.032H80.9901C81.0541 17.832 81.3341 18.464 81.8301 18.928C82.3261 19.392 83.0301 19.624 83.9421 19.624C85.0941 19.624 86.0381 19.2 86.7741 18.352L88.7661 20.104C88.1101 20.824 87.3821 21.36 86.5821 21.712C85.7981 22.064 84.9101 22.24 83.9181 22.24ZM86.4141 14.992C86.4141 14.784 86.4061 14.632 86.3901 14.536C86.2941 13.832 86.0061 13.288 85.5261 12.904C85.0461 12.52 84.4381 12.328 83.7021 12.328C83.1101 12.328 82.6061 12.464 82.1901 12.736C81.7901 12.992 81.4861 13.328 81.2781 13.744C81.0861 14.144 80.9981 14.56 81.0141 14.992H86.4141Z" fill="black"/>
<rect x="48" y="13" width="6" height="6" rx="3" fill="#54A75C"/>
<rect x="48" y="13" width="6" height="6" rx="3" fill="#3FA949"/>
<rect x="48" y="13" width="6" height="6" rx="3" fill="#479B4E"/>
<rect x="48" y="13" width="6" height="6" rx="3" fill="#3BC76B"/>
</svg>
